<svg xmlns="http://www.w3.org/2000/svg" xmlns:xlink="http://www.w3.org/1999/xlink" viewBox="0 0 508 525">
  <defs>
    <style>
      .cls-1, .cls-3 {
        fill: #fff;
      }

      .cls-2 {
        fill: #90cef0;
      }

      .cls-2, .cls-3, .cls-4, .cls-5, .cls-6, .cls-7, .cls-8 {
        fill-rule: evenodd;
      }

      .cls-4 {
        fill: #929292;
      }

      .cls-5 {
        fill: #bfbfbf;
      }

      .cls-6 {
        fill: #e86c6c;
      }

      .cls-7 {
        fill: #af5353;
      }

      .cls-8 {
        fill: #ffa5a5;
      }

      .cls-9 {
        filter: url(#Rectangle_53);
      }
    </style>
    <filter id="Rectangle_53" x="0" y="0" width="508" height="525" filterUnits="userSpaceOnUse">
      <feOffset dy="16" input="SourceAlpha"/>
      <feGaussianBlur stdDeviation="7" result="blur"/>
      <feFlood flood-opacity="0.161"/>
      <feComposite operator="in" in2="blur"/>
      <feComposite in="SourceGraphic"/>
    </filter>
  </defs>
  <g id="logo" transform="translate(-788 -220)">
    <g id="logo-2" data-name="logo" transform="translate(416.936 -276.579)">
      <g id="_170" data-name="170" transform="translate(430.957 536.473)">
        <g id="g12" transform="translate(0 0)">
          <g class="cls-9" transform="matrix(1, 0, 0, 1, -59.89, -39.89)">
            <rect id="Rectangle_53-2" data-name="Rectangle 53" class="cls-1" width="466" height="483" transform="translate(21 5)"/>
          </g>
          <g id="g18" transform="translate(51.125 10.481)">
            <path id="path20" class="cls-2" d="M440.679-2207.058a144.787,144.787,0,0,1,144.786,144.786,144.785,144.785,0,0,1-144.786,144.785,144.784,144.784,0,0,1-144.786-144.785,144.786,144.786,0,0,1,144.786-144.786h0" transform="translate(-295.893 2207.058)"/>
          </g>
          <path id="path22" class="cls-3" d="M303.378-2015.051a7.514,7.514,0,0,0,3.565.366,6.432,6.432,0,0,0,5.391-3.859,19.589,19.589,0,0,0,4.008-.117c8.492-1.115,14.669-7.4,13.8-14.044-.805-6.135-7.345-10.427-15.032-10.167-.814-3.4-4.864-5.63-9.37-5.038-.2.025-.4.058-.6.094a4.954,4.954,0,0,0,.239-2.276c-.44-3.352-4.272-5.614-8.56-5.05-3.847.5-6.753,3.112-6.991,6.063a7.252,7.252,0,0,0-4.518-.809,6.7,6.7,0,0,0-5.12,3.237c-1.331-3.032-5.245-4.912-9.554-4.347-5,.657-8.64,4.361-8.127,8.273a6.4,6.4,0,0,0,3.111,4.538q-.142.014-.283.035c-6.486.85-11.2,5.653-10.538,10.726s6.463,8.492,12.949,7.642a15.323,15.323,0,0,0,1.692-.32,3.9,3.9,0,0,0,.009.938c.353,2.686,3.424,4.5,6.859,4.048a7.536,7.536,0,0,0,3.283-1.228c1.513,4.762,7.358,7.81,13.832,6.96a14.239,14.239,0,0,0,9.95-5.665h0" transform="translate(-210.725 2091.942)"/>
          <path id="path24" class="cls-3" d="M1474.562-1661.9a12.271,12.271,0,0,0-5.8-.6c-4.292.564-7.685,3.138-8.768,6.28a31.893,31.893,0,0,0-6.52.191c-13.811,1.813-23.858,12.037-22.439,22.839,1.309,9.978,11.945,16.956,24.448,16.532,1.323,5.535,7.911,9.158,15.237,8.2.327-.043.65-.095.968-.154a8.048,8.048,0,0,0-.387,3.7c.714,5.453,6.948,9.131,13.919,8.216,6.257-.822,10.984-5.063,11.371-9.865a11.784,11.784,0,0,0,7.347,1.315,10.9,10.9,0,0,0,8.328-5.262c2.166,4.931,8.531,7.988,15.537,7.068,8.137-1.068,14.053-7.091,13.219-13.453a10.407,10.407,0,0,0-5.059-7.381c.152-.016.306-.035.461-.055,10.547-1.385,18.22-9.194,17.138-17.444s-10.512-13.816-21.061-12.431a24.479,24.479,0,0,0-2.751.523,6.282,6.282,0,0,0-.016-1.527c-.574-4.37-5.566-7.317-11.155-6.584a12.3,12.3,0,0,0-5.34,2c-2.46-7.741-11.966-12.7-22.5-11.318-7.075.928-12.966,4.5-16.182,9.213h0" transform="translate(-1183.668 1774.388)"/>
          <path id="path156" class="cls-4" d="M115.187-822.741l26.47-4.009v-24.118l23.471-4.073v-20.865l21.434-5.163v-17.612l17.7-4.442v-14.362l14.833-4.651v-11.111l11.753-4.628v-7.86l7.544-3.407v-4.607H339.85v4.607l7.543,3.407v7.86l12.141,4.628v11.111l14.484,4.651v14.362l17.658,4.442v17.612l21.434,5.163v20.865l23.471,4.073v24.118l26.47,4.009v27.369H115.187v-27.369h0" transform="translate(-95.284 1180.698)"/>
          <path id="path158" class="cls-5" d="M115.187-800.683l26.47-4.009H436.581l26.47,4.009H115.187Zm49.942-32.2-23.471,4.073H436.581l-23.471-4.073H165.129Zm21.434-26.028-21.434,5.163H413.11l-21.434-5.163H186.563Zm0-17.612,17.7-4.442H374.017l17.658,4.442H186.563Zm17.7-18.8,14.833-4.651H359.534l14.484,4.651H204.259Zm26.586-20.391-11.753,4.628H359.534l-12.141-4.628H230.845ZM339.85-926.984l7.543,3.407H230.845l7.544-3.407H339.85" transform="translate(-95.285 1158.64)"/>
          <path id="path160" class="cls-3" d="M77.982-1282.558a12.364,12.364,0,0,0-5.853-.6c-4.333.569-7.758,3.165-8.851,6.338a32.211,32.211,0,0,0-6.581.193c-13.943,1.83-24.085,12.153-22.654,23.057,1.322,10.073,12.059,17.117,24.679,16.689,1.336,5.588,7.987,9.246,15.384,8.274.33-.044.655-.094.977-.154a8.133,8.133,0,0,0-.393,3.734c.722,5.506,7.015,9.22,14.054,8.3,6.316-.832,11.087-5.112,11.478-9.959a11.893,11.893,0,0,0,7.418,1.327,11,11,0,0,0,8.406-5.311c2.185,4.977,8.612,8.064,15.685,7.136,8.212-1.078,14.186-7.159,13.343-13.581a10.5,10.5,0,0,0-5.108-7.451q.232-.026.465-.056c10.649-1.4,18.395-9.282,17.3-17.61s-10.612-13.946-21.261-12.548a24.96,24.96,0,0,0-2.778.526,6.4,6.4,0,0,0-.015-1.542c-.579-4.411-5.621-7.387-11.261-6.646a12.4,12.4,0,0,0-5.391,2.016c-2.484-7.816-12.081-12.822-22.711-11.426-7.142.938-13.088,4.547-16.337,9.3h0" transform="translate(-28.05 1460.662)"/>
          <path id="path162" class="cls-3" d="M1484.553-2065.783a6.81,6.81,0,0,0,3.228.332,5.83,5.83,0,0,0,4.884-3.5,17.688,17.688,0,0,0,3.631-.106c7.692-1.009,13.288-6.706,12.5-12.721-.728-5.557-6.653-9.443-13.615-9.208-.737-3.083-4.407-5.1-8.487-4.564-.182.023-.362.053-.539.085a4.493,4.493,0,0,0,.217-2.062c-.4-3.036-3.87-5.084-7.754-4.575-3.486.458-6.116,2.82-6.333,5.495a6.551,6.551,0,0,0-4.092-.733,6.062,6.062,0,0,0-4.637,2.93c-1.207-2.746-4.753-4.449-8.655-3.937-4.531.594-7.826,3.949-7.36,7.492a5.791,5.791,0,0,0,2.818,4.112c-.085.009-.171.021-.258.032-5.875.769-10.148,5.119-9.544,9.715s5.854,7.695,11.731,6.923a13.7,13.7,0,0,0,1.532-.29,3.5,3.5,0,0,0,.007.85c.32,2.433,3.1,4.075,6.213,3.668a6.856,6.856,0,0,0,2.974-1.113c1.371,4.313,6.667,7.075,12.53,6.3a12.9,12.9,0,0,0,9.015-5.13h0" transform="translate(-1191.601 2130.78)"/>
        </g>
      </g>
    </g>
    <path id="path784" class="cls-6" d="M229.775,35.765h-.906v-112H211.1V-77.3H210.2v-1.072h-.906v-1.087h-.916v-1.072h-.916v-1.075h-.906V-82.68h-.906v-1.082h-.916v-1.077h-.911v-1.069h-.906v-1.077H202v-1.075h-.916v-1.072h-.911V-90.2h-.906v-1.078h-.916v-1.071h-.906v-1.072h-.911V-94.51h-.911v-1.072h-.906v-1.071h-.916v-1.077h-.911v-1.082h-.906v-38.225H306.4l19.118,22.565V-76.23H288.744V58.335H247.987V57.263h-.911V56.188h-.911V55.116h-.906V54.035h-.916V52.957h-.906V51.888h-.916V50.816h-.906V49.738H240.7V48.657h-.911V47.585h-.906V46.51h-.911V45.439h-.911V44.361h-.911V43.286h-.911V42.214h-.906V41.143h-.916V40.065h-.911V38.994H231.6V37.908h-.906V36.837h-.916V35.765" transform="translate(857.87 437.665)"/>
    <path id="path784-2" data-name="path784" class="cls-6" d="M229.775,35.765h-.906v-112H211.1V-77.3H210.2v-1.072h-.906v-1.087h-.916v-1.072h-.916v-1.075h-.906V-82.68h-.906v-1.082h-.916v-1.077h-.911v-1.069h-.906v-1.077H202v-1.075h-.916v-1.072h-.911V-90.2h-.906v-1.078h-.916v-1.071h-.906v-1.072h-.911V-94.51h-.911v-1.072h-.906v-1.071h-.916v-1.077h-.911v-1.082h-.906v-38.225H306.4l19.118,22.565V-76.23H288.744V58.335H247.987V57.263h-.911V56.188h-.911V55.116h-.906V54.035h-.916V52.957h-.906V51.888h-.916V50.816h-.906V49.738H240.7V48.657h-.911V47.585h-.906V46.51h-.911V45.439h-.911V44.361h-.911V43.286h-.911V42.214h-.906V41.143h-.916V40.065h-.911V38.994H231.6V37.908h-.906V36.837h-.916V35.765" transform="translate(706.87 437.665)"/>
    <path id="path786" class="cls-7" d="M191.989-132.041c29.091,5.75,114.413,18.832,114.413,18.832L325.52-90.627H288.744l-19.118-22.582L254.4-95.083,269.626,21.368l19.118,22.57H247.987V42.866h-.911V41.791h-.911V40.719h-.906V39.638h-.916V38.56h-.906V37.491h-.916V36.419h-.906V35.342H240.7V34.261h-.911V33.189h-.906V32.113h-.911V31.042h-.911V29.965h-.911V28.889h-.911V27.817h-.906V26.746h-.916V25.668h-.911V24.6H231.6V23.511h-.906V22.44h-.916V21.368h-.906v-112H211.1l-8.188-9.678L202-101.382l-.916-1.075-.911-1.072-.906-1.071-.916-1.078-.906-1.071-.911-1.072-.911-1.085-.906-1.072-.916-1.071-.911-1.077-.906-1.082v-18.832" transform="translate(857.87 452.062)"/>
    <path id="path786-2" data-name="path786" class="cls-7" d="M191.989-132.041c29.091,5.75,114.413,18.832,114.413,18.832L325.52-90.627H288.744l-19.118-22.582L254.4-95.083,269.626,21.368l19.118,22.57H247.987V42.866h-.911V41.791h-.911V40.719h-.906V39.638h-.916V38.56h-.906V37.491h-.916V36.419h-.906V35.342H240.7V34.261h-.911V33.189h-.906V32.113h-.911V31.042h-.911V29.965h-.911V28.889h-.911V27.817h-.906V26.746h-.916V25.668h-.911V24.6H231.6V23.511h-.906V22.44h-.916V21.368h-.906v-112H211.1l-8.188-9.678L202-101.382l-.916-1.075-.911-1.072-.906-1.071-.916-1.078-.906-1.071-.911-1.072-.911-1.085-.906-1.072-.916-1.071-.911-1.077-.906-1.082v-18.832" transform="translate(706.87 452.062)"/>
    <path id="path788" class="cls-8" d="M269.626,35.765H228.869V-98.812h-36.88v-38.225H306.4v38.225H269.626V35.765" transform="translate(857.87 437.665)"/>
    <path id="path788-2" data-name="path788" class="cls-8" d="M269.626,35.765H228.869V-98.812h-36.88v-38.225H306.4v38.225H269.626V35.765" transform="translate(706.87 437.665)"/>
  </g>
</svg>
